<?xml version="1.0" encoding="UTF-8" standalone="no"?>
<!DOCTYPE svg PUBLIC "-//W3C//DTD SVG 1.1//EN"
 "http://www.w3.org/Graphics/SVG/1.1/DTD/svg11.dtd">
<!-- Generated by graphviz version 14.1.2 (20260124.0452)
 -->
<!-- Title: G Pages: 1 -->
<svg width="783pt" height="440pt"
 viewBox="0.00 0.00 783.00 440.00" xmlns="http://www.w3.org/2000/svg" xmlns:xlink="http://www.w3.org/1999/xlink">
<g id="graph0" class="graph" transform="scale(1 1) rotate(0) translate(21.6 418.33)">
<title>G</title>
<polygon fill="#111111" stroke="none" points="-21.6,21.6 -21.6,-418.33 761.35,-418.33 761.35,21.6 -21.6,21.6"/>
<!-- App.tsx -->
<g id="node1" class="node">
<title>App.tsx</title>
<path fill="none" stroke="#c6c5fe" d="M280.21,-212.75C280.21,-212.75 235.04,-212.75 235.04,-212.75 231.08,-212.75 227.12,-208.79 227.12,-204.83 227.12,-204.83 227.12,-196.92 227.12,-196.92 227.12,-192.96 231.08,-189 235.04,-189 235.04,-189 280.21,-189 280.21,-189 284.17,-189 288.12,-192.96 288.12,-196.92 288.12,-196.92 288.12,-204.83 288.12,-204.83 288.12,-208.79 284.17,-212.75 280.21,-212.75"/>
<text xml:space="preserve" text-anchor="middle" x="257.62" y="-195.45" font-family="Arial" font-size="14.00" fill="#c6c5fe">App.tsx</text>
</g>
<!-- components/Layout.tsx -->
<g id="node2" class="node">
<title>components/Layout.tsx</title>
<path fill="none" stroke="#c6c5fe" d="M503.96,-317.75C503.96,-317.75 364.29,-317.75 364.29,-317.75 360.33,-317.75 356.38,-313.79 356.38,-309.83 356.38,-309.83 356.38,-301.92 356.38,-301.92 356.38,-297.96 360.33,-294 364.29,-294 364.29,-294 503.96,-294 503.96,-294 507.92,-294 511.88,-297.96 511.88,-301.92 511.88,-301.92 511.88,-309.83 511.88,-309.83 511.88,-313.79 507.92,-317.75 503.96,-317.75"/>
<text xml:space="preserve" text-anchor="middle" x="434.12" y="-300.45" font-family="Arial" font-size="14.00" fill="#c6c5fe">components/Layout.tsx</text>
</g>
<!-- App.tsx&#45;&gt;components/Layout.tsx -->
<g id="edge1" class="edge">
<title>App.tsx&#45;&gt;components/Layout.tsx</title>
<path fill="none" stroke="#757575" d="M265.34,-213.13C276.24,-231.79 299.65,-267.07 329.75,-284.88 334.65,-287.77 339.88,-290.28 345.29,-292.44"/>
<polygon fill="#757575" stroke="#757575" points="343.87,-295.65 354.46,-295.69 346.2,-289.05 343.87,-295.65"/>
</g>
<!-- components/ProtectedRoute.tsx -->
<g id="node3" class="node">
<title>components/ProtectedRoute.tsx</title>
<path fill="none" stroke="#c6c5fe" d="M530.58,-233.75C530.58,-233.75 337.67,-233.75 337.67,-233.75 333.71,-233.75 329.75,-229.79 329.75,-225.83 329.75,-225.83 329.75,-217.92 329.75,-217.92 329.75,-213.96 333.71,-210 337.67,-210 337.67,-210 530.58,-210 530.58,-210 534.54,-210 538.5,-213.96 538.5,-217.92 538.5,-217.92 538.5,-225.83 538.5,-225.83 538.5,-229.79 534.54,-233.75 530.58,-233.75"/>
<text xml:space="preserve" text-anchor="middle" x="434.12" y="-216.45" font-family="Arial" font-size="14.00" fill="#c6c5fe">components/ProtectedRoute.tsx</text>
</g>
<!-- App.tsx&#45;&gt;components/ProtectedRoute.tsx -->
<g id="edge2" class="edge">
<title>App.tsx&#45;&gt;components/ProtectedRoute.tsx</title>
<path fill="none" stroke="#757575" d="M288.62,-204.49C297.61,-205.57 308.05,-206.82 319.13,-208.16"/>
<polygon fill="#757575" stroke="#757575" points="318.54,-211.61 328.89,-209.33 319.38,-204.66 318.54,-211.61"/>
</g>
<!-- contexts/AuthContext.tsx -->
<g id="node4" class="node">
<title>contexts/AuthContext.tsx</title>
<path fill="none" stroke="#cfffac" d="M731.83,-338.75C731.83,-338.75 582.42,-338.75 582.42,-338.75 578.46,-338.75 574.5,-334.79 574.5,-330.83 574.5,-330.83 574.5,-322.92 574.5,-322.92 574.5,-318.96 578.46,-315 582.42,-315 582.42,-315 731.83,-315 731.83,-315 735.79,-315 739.75,-318.96 739.75,-322.92 739.75,-322.92 739.75,-330.83 739.75,-330.83 739.75,-334.79 735.79,-338.75 731.83,-338.75"/>
<text xml:space="preserve" text-anchor="middle" x="657.12" y="-321.45" font-family="Arial" font-size="14.00" fill="#cfffac">contexts/AuthContext.tsx</text>
</g>
<!-- App.tsx&#45;&gt;contexts/AuthContext.tsx -->
<g id="edge3" class="edge">
<title>App.tsx&#45;&gt;contexts/AuthContext.tsx</title>
<path fill="none" stroke="#757575" d="M259.44,-213C262.32,-245.17 275.1,-332.66 329.75,-368.88 421.82,-429.87 560.95,-374.8 623.56,-344.17"/>
<polygon fill="#757575" stroke="#757575" points="624.91,-347.41 632.29,-339.8 621.78,-341.15 624.91,-347.41"/>
</g>
<!-- pages/Dashboard.tsx -->
<g id="node5" class="node">
<title>pages/Dashboard.tsx</title>
<path fill="none" stroke="#cfffac" d="M497.96,-275.75C497.96,-275.75 370.29,-275.75 370.29,-275.75 366.33,-275.75 362.38,-271.79 362.38,-267.83 362.38,-267.83 362.38,-259.92 362.38,-259.92 362.38,-255.96 366.33,-252 370.29,-252 370.29,-252 497.96,-252 497.96,-252 501.92,-252 505.88,-255.96 505.88,-259.92 505.88,-259.92 505.88,-267.83 505.88,-267.83 505.88,-271.79 501.92,-275.75 497.96,-275.75"/>
<text xml:space="preserve" text-anchor="middle" x="434.12" y="-258.45" font-family="Arial" font-size="14.00" fill="#cfffac">pages/Dashboard.tsx</text>
</g>
<!-- App.tsx&#45;&gt;pages/Dashboard.tsx -->
<g id="edge4" class="edge">
<title>App.tsx&#45;&gt;pages/Dashboard.tsx</title>
<path fill="none" stroke="#757575" d="M275.63,-213.12C289.54,-222.59 310.07,-235.31 329.75,-242.88 336.5,-245.47 343.64,-247.77 350.87,-249.79"/>
<polygon fill="#757575" stroke="#757575" points="349.86,-253.14 360.42,-252.28 351.63,-246.37 349.86,-253.14"/>
</g>
<!-- pages/Exceptions.tsx -->
<g id="node6" class="node">
<title>pages/Exceptions.tsx</title>
<path fill="none" stroke="#c6c5fe" d="M497.96,-149.75C497.96,-149.75 370.29,-149.75 370.29,-149.75 366.33,-149.75 362.38,-145.79 362.38,-141.83 362.38,-141.83 362.38,-133.92 362.38,-133.92 362.38,-129.96 366.33,-126 370.29,-126 370.29,-126 497.96,-126 497.96,-126 501.92,-126 505.88,-129.96 505.88,-133.92 505.88,-133.92 505.88,-141.83 505.88,-141.83 505.88,-145.79 501.92,-149.75 497.96,-149.75"/>
<text xml:space="preserve" text-anchor="middle" x="434.12" y="-132.45" font-family="Arial" font-size="14.00" fill="#c6c5fe">pages/Exceptions.tsx</text>
</g>
<!-- App.tsx&#45;&gt;pages/Exceptions.tsx -->
<g id="edge5" class="edge">
<title>App.tsx&#45;&gt;pages/Exceptions.tsx</title>
<path fill="none" stroke="#757575" d="M279.05,-188.71C299.57,-176.49 328.38,-159.4 329.75,-158.88 336.5,-156.28 343.64,-153.98 350.87,-151.96"/>
<polygon fill="#757575" stroke="#757575" points="351.63,-155.38 360.42,-149.47 349.86,-148.61 351.63,-155.38"/>
</g>
<!-- pages/FileManager.tsx -->
<g id="node7" class="node">
<title>pages/FileManager.tsx</title>
<path fill="none" stroke="#cfffac" d="M502.46,-191.75C502.46,-191.75 365.79,-191.75 365.79,-191.75 361.83,-191.75 357.88,-187.79 357.88,-183.83 357.88,-183.83 357.88,-175.92 357.88,-175.92 357.88,-171.96 361.83,-168 365.79,-168 365.79,-168 502.46,-168 502.46,-168 506.42,-168 510.38,-171.96 510.38,-175.92 510.38,-175.92 510.38,-183.83 510.38,-183.83 510.38,-187.79 506.42,-191.75 502.46,-191.75"/>
<text xml:space="preserve" text-anchor="middle" x="434.12" y="-174.45" font-family="Arial" font-size="14.00" fill="#cfffac">pages/FileManager.tsx</text>
</g>
<!-- App.tsx&#45;&gt;pages/FileManager.tsx -->
<g id="edge6" class="edge">
<title>App.tsx&#45;&gt;pages/FileManager.tsx</title>
<path fill="none" stroke="#757575" d="M288.62,-197.26C304.73,-195.33 325.5,-192.83 346.24,-190.33"/>
<polygon fill="#757575" stroke="#757575" points="346.38,-193.84 355.89,-189.17 345.54,-186.89 346.38,-193.84"/>
</g>
<!-- pages/Login.tsx -->
<g id="node8" class="node">
<title>pages/Login.tsx</title>
<path fill="none" stroke="#c6c5fe" d="M481.46,-359.75C481.46,-359.75 386.79,-359.75 386.79,-359.75 382.83,-359.75 378.88,-355.79 378.88,-351.83 378.88,-351.83 378.88,-343.92 378.88,-343.92 378.88,-339.96 382.83,-336 386.79,-336 386.79,-336 481.46,-336 481.46,-336 485.42,-336 489.38,-339.96 489.38,-343.92 489.38,-343.92 489.38,-351.83 489.38,-351.83 489.38,-355.79 485.42,-359.75 481.46,-359.75"/>
<text xml:space="preserve" text-anchor="middle" x="434.12" y="-342.45" font-family="Arial" font-size="14.00" fill="#c6c5fe">pages/Login.tsx</text>
</g>
<!-- App.tsx&#45;&gt;pages/Login.tsx -->
<g id="edge7" class="edge">
<title>App.tsx&#45;&gt;pages/Login.tsx</title>
<path fill="none" stroke="#757575" d="M261.84,-213.23C269.18,-238.85 289.73,-297.77 329.75,-326.88 340.74,-334.87 354.05,-339.99 367.41,-343.24"/>
<polygon fill="#757575" stroke="#757575" points="366.61,-346.65 377.11,-345.24 368.02,-339.79 366.61,-346.65"/>
</g>
<!-- pages/RejectedLoans.tsx -->
<g id="node9" class="node">
<title>pages/RejectedLoans.tsx</title>
<path fill="none" stroke="#c6c5fe" d="M509.96,-65.75C509.96,-65.75 358.29,-65.75 358.29,-65.75 354.33,-65.75 350.38,-61.79 350.38,-57.83 350.38,-57.83 350.38,-49.92 350.38,-49.92 350.38,-45.96 354.33,-42 358.29,-42 358.29,-42 509.96,-42 509.96,-42 513.92,-42 517.88,-45.96 517.88,-49.92 517.88,-49.92 517.88,-57.83 517.88,-57.83 517.88,-61.79 513.92,-65.75 509.96,-65.75"/>
<text xml:space="preserve" text-anchor="middle" x="434.12" y="-48.45" font-family="Arial" font-size="14.00" fill="#c6c5fe">pages/RejectedLoans.tsx</text>
</g>
<!-- App.tsx&#45;&gt;pages/RejectedLoans.tsx -->
<g id="edge8" class="edge">
<title>App.tsx&#45;&gt;pages/RejectedLoans.tsx</title>
<path fill="none" stroke="#757575" d="M284.15,-188.62C287.71,-186.1 291.07,-183.19 293.75,-179.88 324.81,-141.55 292.68,-107.42 329.75,-74.88 332.93,-72.08 336.38,-69.62 340.02,-67.46"/>
<polygon fill="#757575" stroke="#757575" points="341.36,-70.71 348.71,-63.08 338.21,-64.45 341.36,-70.71"/>
</g>
<!-- pages/RunDetail.tsx -->
<g id="node10" class="node">
<title>pages/RunDetail.tsx</title>
<path fill="none" stroke="#c6c5fe" d="M494.58,-107.75C494.58,-107.75 373.67,-107.75 373.67,-107.75 369.71,-107.75 365.75,-103.79 365.75,-99.83 365.75,-99.83 365.75,-91.92 365.75,-91.92 365.75,-87.96 369.71,-84 373.67,-84 373.67,-84 494.58,-84 494.58,-84 498.54,-84 502.5,-87.96 502.5,-91.92 502.5,-91.92 502.5,-99.83 502.5,-99.83 502.5,-103.79 498.54,-107.75 494.58,-107.75"/>
<text xml:space="preserve" text-anchor="middle" x="434.12" y="-90.45" font-family="Arial" font-size="14.00" fill="#c6c5fe">pages/RunDetail.tsx</text>
</g>
<!-- App.tsx&#45;&gt;pages/RunDetail.tsx -->
<g id="edge9" class="edge">
<title>App.tsx&#45;&gt;pages/RunDetail.tsx</title>
<path fill="none" stroke="#757575" d="M282.89,-188.64C286.78,-186.06 290.57,-183.12 293.75,-179.88 316.33,-156.85 303.62,-135.77 329.75,-116.88 337.19,-111.5 345.68,-107.42 354.52,-104.34"/>
<polygon fill="#757575" stroke="#757575" points="355.41,-107.73 363.98,-101.49 353.4,-101.02 355.41,-107.73"/>
</g>
<!-- pages/Runs.tsx -->
<g id="node11" class="node">
<title>pages/Runs.tsx</title>
<path fill="none" stroke="#cfffac" d="M480.71,-23.75C480.71,-23.75 387.54,-23.75 387.54,-23.75 383.58,-23.75 379.62,-19.79 379.62,-15.83 379.62,-15.83 379.62,-7.92 379.62,-7.92 379.62,-3.96 383.58,0 387.54,0 387.54,0 480.71,0 480.71,0 484.67,0 488.62,-3.96 488.62,-7.92 488.62,-7.92 488.62,-15.83 488.62,-15.83 488.62,-19.79 484.67,-23.75 480.71,-23.75"/>
<text xml:space="preserve" text-anchor="middle" x="434.12" y="-6.45" font-family="Arial" font-size="14.00" fill="#cfffac">pages/Runs.tsx</text>
</g>
<!-- App.tsx&#45;&gt;pages/Runs.tsx -->
<g id="edge10" class="edge">
<title>App.tsx&#45;&gt;pages/Runs.tsx</title>
<path fill="none" stroke="#757575" d="M284.77,-188.57C288.16,-186.08 291.3,-183.19 293.75,-179.88 333.71,-125.76 281.25,-79.48 329.75,-32.88 340.12,-22.91 353.85,-17.08 367.91,-13.79"/>
<polygon fill="#757575" stroke="#757575" points="368.52,-17.24 377.7,-11.95 367.23,-10.36 368.52,-17.24"/>
</g>
<!-- components/Layout.tsx&#45;&gt;contexts/AuthContext.tsx -->
<g id="edge11" class="edge">
<title>components/Layout.tsx&#45;&gt;contexts/AuthContext.tsx</title>
<path fill="none" stroke="#757575" d="M512.11,-313.19C528.56,-314.75 546.11,-316.42 563.09,-318.03"/>
<polygon fill="#757575" stroke="#757575" points="562.36,-321.48 572.65,-318.94 563.02,-314.51 562.36,-321.48"/>
</g>
<!-- components/ProtectedRoute.tsx&#45;&gt;contexts/AuthContext.tsx -->
<g id="edge12" class="edge">
<title>components/ProtectedRoute.tsx&#45;&gt;contexts/AuthContext.tsx</title>
<path fill="none" stroke="#757575" d="M513.82,-234.22C522.31,-236.62 530.69,-239.48 538.5,-242.88 575.51,-258.97 612.45,-288 634.79,-307.36"/>
<polygon fill="#757575" stroke="#757575" points="632.21,-309.75 642.02,-313.75 636.85,-304.5 632.21,-309.75"/>
</g>
<!-- utils/rejectionCriteria.ts -->
<g id="node16" class="node">
<title>utils/rejectionCriteria.ts</title>
<path fill="none" stroke="#cfffac" d="M725.46,-107.75C725.46,-107.75 588.79,-107.75 588.79,-107.75 584.83,-107.75 580.88,-103.79 580.88,-99.83 580.88,-99.83 580.88,-91.92 580.88,-91.92 580.88,-87.96 584.83,-84 588.79,-84 588.79,-84 725.46,-84 725.46,-84 729.42,-84 733.38,-87.96 733.38,-91.92 733.38,-91.92 733.38,-99.83 733.38,-99.83 733.38,-103.79 729.42,-107.75 725.46,-107.75"/>
<text xml:space="preserve" text-anchor="middle" x="657.12" y="-90.45" font-family="Arial" font-size="14.00" fill="#cfffac">utils/rejectionCriteria.ts</text>
</g>
<!-- pages/Exceptions.tsx&#45;&gt;utils/rejectionCriteria.ts -->
<g id="edge15" class="edge">
<title>pages/Exceptions.tsx&#45;&gt;utils/rejectionCriteria.ts</title>
<path fill="none" stroke="#757575" d="M500.24,-125.5C525.19,-120.76 553.88,-115.31 579.8,-110.38"/>
<polygon fill="#757575" stroke="#757575" points="580.44,-113.82 589.61,-108.52 579.13,-106.94 580.44,-113.82"/>
</g>
<!-- pages/Login.tsx&#45;&gt;contexts/AuthContext.tsx -->
<g id="edge16" class="edge">
<title>pages/Login.tsx&#45;&gt;contexts/AuthContext.tsx</title>
<path fill="none" stroke="#757575" d="M489.75,-342.68C511.81,-340.59 537.9,-338.11 562.8,-335.74"/>
<polygon fill="#757575" stroke="#757575" points="563,-339.24 572.63,-334.81 562.34,-332.27 563,-339.24"/>
</g>
<!-- pages/RejectedLoans.tsx&#45;&gt;utils/rejectionCriteria.ts -->
<g id="edge17" class="edge">
<title>pages/RejectedLoans.tsx&#45;&gt;utils/rejectionCriteria.ts</title>
<path fill="none" stroke="#757575" d="M500.24,-66.25C525.19,-70.99 553.88,-76.44 579.8,-81.37"/>
<polygon fill="#757575" stroke="#757575" points="579.13,-84.81 589.61,-83.23 580.44,-77.93 579.13,-84.81"/>
</g>
<!-- pages/RunDetail.tsx&#45;&gt;utils/rejectionCriteria.ts -->
<g id="edge18" class="edge">
<title>pages/RunDetail.tsx&#45;&gt;utils/rejectionCriteria.ts</title>
<path fill="none" stroke="#757575" d="M502.93,-95.88C523.9,-95.88 547.28,-95.88 569.34,-95.88"/>
<polygon fill="#757575" stroke="#757575" points="569.22,-99.38 579.22,-95.88 569.22,-92.38 569.22,-99.38"/>
</g>
<!-- components/FileBrowser.tsx -->
<g id="node12" class="node">
<title>components/FileBrowser.tsx</title>
<path fill="none" stroke="#cfffac" d="M177.58,-233.75C177.58,-233.75 7.92,-233.75 7.92,-233.75 3.96,-233.75 0,-229.79 0,-225.83 0,-225.83 0,-217.92 0,-217.92 0,-213.96 3.96,-210 7.92,-210 7.92,-210 177.58,-210 177.58,-210 181.54,-210 185.5,-213.96 185.5,-217.92 185.5,-217.92 185.5,-225.83 185.5,-225.83 185.5,-229.79 181.54,-233.75 177.58,-233.75"/>
<text xml:space="preserve" text-anchor="middle" x="92.75" y="-216.45" font-family="Arial" font-size="14.00" fill="#cfffac">components/FileBrowser.tsx</text>
</g>
<!-- components/FileUpload.tsx -->
<g id="node13" class="node">
<title>components/FileUpload.tsx</title>
<path fill="none" stroke="#cfffac" d="M174.58,-275.75C174.58,-275.75 10.92,-275.75 10.92,-275.75 6.96,-275.75 3,-271.79 3,-267.83 3,-267.83 3,-259.92 3,-259.92 3,-255.96 6.96,-252 10.92,-252 10.92,-252 174.58,-252 174.58,-252 178.54,-252 182.5,-255.96 182.5,-259.92 182.5,-259.92 182.5,-267.83 182.5,-267.83 182.5,-271.79 178.54,-275.75 174.58,-275.75"/>
<text xml:space="preserve" text-anchor="middle" x="92.75" y="-258.45" font-family="Arial" font-size="14.00" fill="#cfffac">components/FileUpload.tsx</text>
</g>
<!-- index.css -->
<g id="node14" class="node">
<title>index.css</title>
<path fill="none" stroke="#cfffac" d="M285.83,-170.75C285.83,-170.75 229.42,-170.75 229.42,-170.75 225.46,-170.75 221.5,-166.79 221.5,-162.83 221.5,-162.83 221.5,-154.92 221.5,-154.92 221.5,-150.96 225.46,-147 229.42,-147 229.42,-147 285.83,-147 285.83,-147 289.79,-147 293.75,-150.96 293.75,-154.92 293.75,-154.92 293.75,-162.83 293.75,-162.83 293.75,-166.79 289.79,-170.75 285.83,-170.75"/>
<text xml:space="preserve" text-anchor="middle" x="257.62" y="-153.45" font-family="Arial" font-size="14.00" fill="#cfffac">index.css</text>
</g>
<!-- main.tsx -->
<g id="node15" class="node">
<title>main.tsx</title>
<path fill="none" stroke="#c6c5fe" d="M118.33,-191.75C118.33,-191.75 67.17,-191.75 67.17,-191.75 63.21,-191.75 59.25,-187.79 59.25,-183.83 59.25,-183.83 59.25,-175.92 59.25,-175.92 59.25,-171.96 63.21,-168 67.17,-168 67.17,-168 118.33,-168 118.33,-168 122.29,-168 126.25,-171.96 126.25,-175.92 126.25,-175.92 126.25,-183.83 126.25,-183.83 126.25,-187.79 122.29,-191.75 118.33,-191.75"/>
<text xml:space="preserve" text-anchor="middle" x="92.75" y="-174.45" font-family="Arial" font-size="14.00" fill="#c6c5fe">main.tsx</text>
</g>
<!-- main.tsx&#45;&gt;App.tsx -->
<g id="edge13" class="edge">
<title>main.tsx&#45;&gt;App.tsx</title>
<path fill="none" stroke="#757575" d="M126.71,-184.12C152.33,-187.43 188.02,-192.03 215.5,-195.57"/>
<polygon fill="#757575" stroke="#757575" points="214.86,-199.02 225.23,-196.83 215.76,-192.08 214.86,-199.02"/>
</g>
<!-- main.tsx&#45;&gt;index.css -->
<g id="edge14" class="edge">
<title>main.tsx&#45;&gt;index.css</title>
<path fill="none" stroke="#757575" d="M126.71,-175.63C150.6,-172.55 183.23,-168.34 209.82,-164.91"/>
<polygon fill="#757575" stroke="#757575" points="210.2,-168.39 219.67,-163.64 209.31,-161.45 210.2,-168.39"/>
</g>
<!-- vite&#45;env.d.ts -->
<g id="node17" class="node">
<title>vite&#45;env.d.ts</title>
<path fill="none" stroke="#cfffac" d="M128.83,-317.75C128.83,-317.75 56.67,-317.75 56.67,-317.75 52.71,-317.75 48.75,-313.79 48.75,-309.83 48.75,-309.83 48.75,-301.92 48.75,-301.92 48.75,-297.96 52.71,-294 56.67,-294 56.67,-294 128.83,-294 128.83,-294 132.79,-294 136.75,-297.96 136.75,-301.92 136.75,-301.92 136.75,-309.83 136.75,-309.83 136.75,-313.79 132.79,-317.75 128.83,-317.75"/>
<text xml:space="preserve" text-anchor="middle" x="92.75" y="-300.45" font-family="Arial" font-size="14.00" fill="#cfffac">vite&#45;env.d.ts</text>
</g>
</g>
</svg>
